<mxfile host="Electron" agent="Mozilla/5.0 (Windows NT 10.0; Win64; x64) AppleWebKit/537.36 (KHTML, like Gecko) draw.io/27.0.5 Chrome/134.0.6998.205 Electron/35.3.0 Safari/537.36" version="27.0.5">
  <diagram name="Página-1" id="LJZUTRN9EYRpdgnqfqR1">
    <mxGraphModel dx="872" dy="537" grid="1" gridSize="10" guides="1" tooltips="1" connect="1" arrows="1" fold="1" page="1" pageScale="1" pageWidth="827" pageHeight="1169" math="0" shadow="0">
      <root>
        <mxCell id="0" />
        <mxCell id="1" parent="0" />
        <mxCell id="mpPp9ekECmZJyqm2tQeN-1" value="Motorista" style="shape=umlActor;verticalLabelPosition=bottom;verticalAlign=top;html=1;" parent="1" vertex="1">
          <mxGeometry x="50" y="850" width="30" height="60" as="geometry" />
        </mxCell>
        <mxCell id="mpPp9ekECmZJyqm2tQeN-2" value="Produtor" style="shape=umlActor;verticalLabelPosition=bottom;verticalAlign=top;html=1;" parent="1" vertex="1">
          <mxGeometry x="40" y="260" width="30" height="60" as="geometry" />
        </mxCell>
        <mxCell id="mpPp9ekECmZJyqm2tQeN-3" value="Cliente&lt;div&gt;&lt;br&gt;&lt;/div&gt;" style="shape=umlActor;verticalLabelPosition=bottom;verticalAlign=top;html=1;" parent="1" vertex="1">
          <mxGeometry x="750" y="295" width="30" height="60" as="geometry" />
        </mxCell>
        <mxCell id="S9QzWomfx2aFPCHSjiB9-1" value="" style="rounded=0;whiteSpace=wrap;html=1;fontStyle=4" vertex="1" parent="1">
          <mxGeometry x="120" y="100" width="610" height="960" as="geometry" />
        </mxCell>
        <mxCell id="S9QzWomfx2aFPCHSjiB9-2" value="&lt;h1 style=&quot;margin-top: 0px;&quot;&gt;Sistema de Agronegócio&lt;/h1&gt;" style="text;html=1;whiteSpace=wrap;overflow=hidden;rounded=0;align=center;fontStyle=0" vertex="1" parent="1">
          <mxGeometry x="250" y="110" width="314" height="40" as="geometry" />
        </mxCell>
        <mxCell id="S9QzWomfx2aFPCHSjiB9-4" value="Cadastrar produtos" style="ellipse;whiteSpace=wrap;html=1;" vertex="1" parent="1">
          <mxGeometry x="134" y="230" width="140" height="70" as="geometry" />
        </mxCell>
        <mxCell id="S9QzWomfx2aFPCHSjiB9-5" value="Aceitar ou recusar pedidos" style="ellipse;whiteSpace=wrap;html=1;" vertex="1" parent="1">
          <mxGeometry x="200" y="310" width="140" height="70" as="geometry" />
        </mxCell>
        <mxCell id="S9QzWomfx2aFPCHSjiB9-6" value="Acompanhar status de entrega" style="ellipse;whiteSpace=wrap;html=1;" vertex="1" parent="1">
          <mxGeometry x="134" y="390" width="140" height="70" as="geometry" />
        </mxCell>
        <mxCell id="S9QzWomfx2aFPCHSjiB9-7" value="Avaliar produtor&amp;nbsp; e motorista" style="ellipse;whiteSpace=wrap;html=1;" vertex="1" parent="1">
          <mxGeometry x="580" y="430" width="140" height="70" as="geometry" />
        </mxCell>
        <mxCell id="S9QzWomfx2aFPCHSjiB9-8" value="Realizar pagamento" style="ellipse;whiteSpace=wrap;html=1;" vertex="1" parent="1">
          <mxGeometry x="480" y="370" width="140" height="70" as="geometry" />
        </mxCell>
        <mxCell id="S9QzWomfx2aFPCHSjiB9-9" value="Realizar pedidos" style="ellipse;whiteSpace=wrap;html=1;" vertex="1" parent="1">
          <mxGeometry x="470" y="290" width="140" height="70" as="geometry" />
        </mxCell>
        <mxCell id="S9QzWomfx2aFPCHSjiB9-10" value="Navegar por produtos" style="ellipse;whiteSpace=wrap;html=1;" vertex="1" parent="1">
          <mxGeometry x="570" y="220" width="140" height="70" as="geometry" />
        </mxCell>
        <mxCell id="S9QzWomfx2aFPCHSjiB9-11" value="Aceitar ou recusar entregas" style="ellipse;whiteSpace=wrap;html=1;" vertex="1" parent="1">
          <mxGeometry x="210" y="790" width="140" height="70" as="geometry" />
        </mxCell>
        <mxCell id="S9QzWomfx2aFPCHSjiB9-12" value="Ver detalhes da rota e contatos" style="ellipse;whiteSpace=wrap;html=1;" vertex="1" parent="1">
          <mxGeometry x="130" y="960" width="140" height="70" as="geometry" />
        </mxCell>
        <mxCell id="S9QzWomfx2aFPCHSjiB9-13" value="Atualizar status da entrega" style="ellipse;whiteSpace=wrap;html=1;" vertex="1" parent="1">
          <mxGeometry x="210" y="880" width="140" height="70" as="geometry" />
        </mxCell>
        <mxCell id="S9QzWomfx2aFPCHSjiB9-14" value="Visualizar rotas e pedidos" style="ellipse;whiteSpace=wrap;html=1;" vertex="1" parent="1">
          <mxGeometry x="134" y="720" width="156" height="70" as="geometry" />
        </mxCell>
        <mxCell id="S9QzWomfx2aFPCHSjiB9-15" value="Usuário" style="shape=umlActor;verticalLabelPosition=bottom;verticalAlign=top;html=1;" vertex="1" parent="1">
          <mxGeometry x="770" y="860" width="30" height="60" as="geometry" />
        </mxCell>
        <mxCell id="S9QzWomfx2aFPCHSjiB9-16" value="Recuperar senha" style="ellipse;whiteSpace=wrap;html=1;" vertex="1" parent="1">
          <mxGeometry x="460" y="720" width="140" height="70" as="geometry" />
        </mxCell>
        <mxCell id="S9QzWomfx2aFPCHSjiB9-17" value="Login ou Cadastro" style="ellipse;whiteSpace=wrap;html=1;" vertex="1" parent="1">
          <mxGeometry x="570" y="660" width="140" height="70" as="geometry" />
        </mxCell>
        <mxCell id="S9QzWomfx2aFPCHSjiB9-18" value="Atualizar dados pessoais" style="ellipse;whiteSpace=wrap;html=1;" vertex="1" parent="1">
          <mxGeometry x="450" y="810" width="160" height="70" as="geometry" />
        </mxCell>
        <mxCell id="S9QzWomfx2aFPCHSjiB9-19" value="Excluir conta e dados pessoais" style="ellipse;whiteSpace=wrap;html=1;" vertex="1" parent="1">
          <mxGeometry x="460" y="890" width="140" height="70" as="geometry" />
        </mxCell>
        <mxCell id="S9QzWomfx2aFPCHSjiB9-20" value="Receber notificações sobre pedidos" style="ellipse;whiteSpace=wrap;html=1;" vertex="1" parent="1">
          <mxGeometry x="570" y="960" width="140" height="70" as="geometry" />
        </mxCell>
        <mxCell id="S9QzWomfx2aFPCHSjiB9-37" value="" style="endArrow=none;html=1;rounded=0;entryX=0;entryY=1;entryDx=0;entryDy=0;" edge="1" parent="1" target="S9QzWomfx2aFPCHSjiB9-4">
          <mxGeometry relative="1" as="geometry">
            <mxPoint x="60" y="290" as="sourcePoint" />
            <mxPoint x="140" y="290" as="targetPoint" />
          </mxGeometry>
        </mxCell>
        <mxCell id="S9QzWomfx2aFPCHSjiB9-38" value="" style="endArrow=none;html=1;rounded=0;entryX=0.107;entryY=0.186;entryDx=0;entryDy=0;entryPerimeter=0;" edge="1" parent="1" target="S9QzWomfx2aFPCHSjiB9-5">
          <mxGeometry relative="1" as="geometry">
            <mxPoint x="60" y="290" as="sourcePoint" />
            <mxPoint x="490" y="330" as="targetPoint" />
          </mxGeometry>
        </mxCell>
        <mxCell id="S9QzWomfx2aFPCHSjiB9-39" value="" style="endArrow=none;html=1;rounded=0;entryX=0.307;entryY=0.057;entryDx=0;entryDy=0;entryPerimeter=0;" edge="1" parent="1" target="S9QzWomfx2aFPCHSjiB9-6">
          <mxGeometry relative="1" as="geometry">
            <mxPoint x="60" y="290" as="sourcePoint" />
            <mxPoint x="490" y="330" as="targetPoint" />
          </mxGeometry>
        </mxCell>
        <mxCell id="S9QzWomfx2aFPCHSjiB9-40" value="" style="endArrow=none;html=1;rounded=0;exitX=0.8;exitY=0.929;exitDx=0;exitDy=0;exitPerimeter=0;" edge="1" parent="1" source="S9QzWomfx2aFPCHSjiB9-10">
          <mxGeometry relative="1" as="geometry">
            <mxPoint x="330" y="330" as="sourcePoint" />
            <mxPoint x="750" y="330" as="targetPoint" />
          </mxGeometry>
        </mxCell>
        <mxCell id="S9QzWomfx2aFPCHSjiB9-41" value="" style="endArrow=none;html=1;rounded=0;" edge="1" parent="1">
          <mxGeometry relative="1" as="geometry">
            <mxPoint x="610" y="320" as="sourcePoint" />
            <mxPoint x="750" y="330" as="targetPoint" />
          </mxGeometry>
        </mxCell>
        <mxCell id="S9QzWomfx2aFPCHSjiB9-42" value="" style="endArrow=none;html=1;rounded=0;exitX=0.936;exitY=0.3;exitDx=0;exitDy=0;exitPerimeter=0;" edge="1" parent="1" source="S9QzWomfx2aFPCHSjiB9-8">
          <mxGeometry relative="1" as="geometry">
            <mxPoint x="330" y="330" as="sourcePoint" />
            <mxPoint x="750" y="330" as="targetPoint" />
          </mxGeometry>
        </mxCell>
        <mxCell id="S9QzWomfx2aFPCHSjiB9-43" value="" style="endArrow=none;html=1;rounded=0;exitX=0.5;exitY=0;exitDx=0;exitDy=0;" edge="1" parent="1" source="S9QzWomfx2aFPCHSjiB9-7">
          <mxGeometry relative="1" as="geometry">
            <mxPoint x="330" y="330" as="sourcePoint" />
            <mxPoint x="750" y="330" as="targetPoint" />
          </mxGeometry>
        </mxCell>
        <mxCell id="S9QzWomfx2aFPCHSjiB9-44" value="" style="endArrow=none;html=1;rounded=0;entryX=0.237;entryY=0.9;entryDx=0;entryDy=0;entryPerimeter=0;" edge="1" parent="1" target="S9QzWomfx2aFPCHSjiB9-14">
          <mxGeometry relative="1" as="geometry">
            <mxPoint x="90" y="890" as="sourcePoint" />
            <mxPoint x="490" y="890" as="targetPoint" />
          </mxGeometry>
        </mxCell>
        <mxCell id="S9QzWomfx2aFPCHSjiB9-45" value="" style="endArrow=none;html=1;rounded=0;entryX=0.029;entryY=0.657;entryDx=0;entryDy=0;entryPerimeter=0;" edge="1" parent="1" target="S9QzWomfx2aFPCHSjiB9-11">
          <mxGeometry relative="1" as="geometry">
            <mxPoint x="90" y="890" as="sourcePoint" />
            <mxPoint x="490" y="890" as="targetPoint" />
          </mxGeometry>
        </mxCell>
        <mxCell id="S9QzWomfx2aFPCHSjiB9-46" value="" style="endArrow=none;html=1;rounded=0;entryX=0.057;entryY=0.214;entryDx=0;entryDy=0;entryPerimeter=0;" edge="1" parent="1" target="S9QzWomfx2aFPCHSjiB9-13">
          <mxGeometry relative="1" as="geometry">
            <mxPoint x="90" y="890" as="sourcePoint" />
            <mxPoint x="490" y="890" as="targetPoint" />
          </mxGeometry>
        </mxCell>
        <mxCell id="S9QzWomfx2aFPCHSjiB9-47" value="" style="endArrow=none;html=1;rounded=0;entryX=0.214;entryY=0.157;entryDx=0;entryDy=0;entryPerimeter=0;" edge="1" parent="1" target="S9QzWomfx2aFPCHSjiB9-12">
          <mxGeometry relative="1" as="geometry">
            <mxPoint x="90" y="890" as="sourcePoint" />
            <mxPoint x="490" y="890" as="targetPoint" />
          </mxGeometry>
        </mxCell>
        <mxCell id="S9QzWomfx2aFPCHSjiB9-48" value="" style="endArrow=none;html=1;rounded=0;exitX=0.629;exitY=0.943;exitDx=0;exitDy=0;exitPerimeter=0;" edge="1" parent="1" source="S9QzWomfx2aFPCHSjiB9-17">
          <mxGeometry relative="1" as="geometry">
            <mxPoint x="330" y="890" as="sourcePoint" />
            <mxPoint x="760" y="890" as="targetPoint" />
          </mxGeometry>
        </mxCell>
        <mxCell id="S9QzWomfx2aFPCHSjiB9-49" value="" style="endArrow=none;html=1;rounded=0;exitX=0.957;exitY=0.657;exitDx=0;exitDy=0;exitPerimeter=0;" edge="1" parent="1" source="S9QzWomfx2aFPCHSjiB9-16">
          <mxGeometry relative="1" as="geometry">
            <mxPoint x="330" y="890" as="sourcePoint" />
            <mxPoint x="760" y="890" as="targetPoint" />
          </mxGeometry>
        </mxCell>
        <mxCell id="S9QzWomfx2aFPCHSjiB9-50" value="" style="endArrow=none;html=1;rounded=0;exitX=0.988;exitY=0.614;exitDx=0;exitDy=0;exitPerimeter=0;" edge="1" parent="1" source="S9QzWomfx2aFPCHSjiB9-18">
          <mxGeometry relative="1" as="geometry">
            <mxPoint x="330" y="890" as="sourcePoint" />
            <mxPoint x="760" y="890" as="targetPoint" />
          </mxGeometry>
        </mxCell>
        <mxCell id="S9QzWomfx2aFPCHSjiB9-51" value="" style="endArrow=none;html=1;rounded=0;exitX=0.914;exitY=0.229;exitDx=0;exitDy=0;exitPerimeter=0;" edge="1" parent="1" source="S9QzWomfx2aFPCHSjiB9-19">
          <mxGeometry relative="1" as="geometry">
            <mxPoint x="330" y="890" as="sourcePoint" />
            <mxPoint x="760" y="890" as="targetPoint" />
          </mxGeometry>
        </mxCell>
        <mxCell id="S9QzWomfx2aFPCHSjiB9-52" value="" style="endArrow=none;html=1;rounded=0;exitX=0.436;exitY=0.014;exitDx=0;exitDy=0;exitPerimeter=0;" edge="1" parent="1" source="S9QzWomfx2aFPCHSjiB9-20">
          <mxGeometry relative="1" as="geometry">
            <mxPoint x="330" y="890" as="sourcePoint" />
            <mxPoint x="760" y="890" as="targetPoint" />
          </mxGeometry>
        </mxCell>
      </root>
    </mxGraphModel>
  </diagram>
</mxfile>
